<svg width="24" height="24" viewBox="0 0 24 24" fill="none" xmlns="http://www.w3.org/2000/svg">
<path d="M20.9351 18.3307C20.594 19.1226 20.1902 19.8516 19.7224 20.5218C19.0847 21.4354 18.5626 22.0678 18.1602 22.419C17.5364 22.9954 16.8681 23.2906 16.1524 23.3074C15.6386 23.3074 15.019 23.1605 14.2978 22.8625C13.5742 22.5659 12.9092 22.419 12.3012 22.419C11.6635 22.419 10.9795 22.5659 10.248 22.8625C9.51535 23.1605 8.92513 23.3158 8.47387 23.3312C7.78758 23.3606 7.10352 23.057 6.42072 22.419C5.98491 22.037 5.43981 21.3822 4.78679 20.4546C4.08616 19.464 3.51015 18.3153 3.05889 17.0057C2.5756 15.5912 2.33333 14.2215 2.33333 12.8954C2.33333 11.3763 2.65998 10.0662 3.31424 8.96827C3.82844 8.0864 4.5125 7.39075 5.36866 6.88006C6.22481 6.36938 7.14989 6.10914 8.14611 6.09249C8.69122 6.09249 9.40605 6.26193 10.2944 6.59492C11.1802 6.92903 11.749 7.09847 11.9983 7.09847C12.1848 7.09847 12.8166 6.90035 13.8877 6.50537C14.9007 6.13908 15.7556 5.98741 16.4559 6.04716C18.3537 6.20106 19.7795 6.95282 20.7277 8.30718C19.0304 9.34058 18.1908 10.788 18.2075 12.6448C18.2228 14.0911 18.745 15.2946 19.7711 16.2502C20.2362 16.6937 20.7555 17.0365 21.3333 17.28C21.208 17.6451 21.0758 17.9949 20.9351 18.3307ZM16.5826 1.11997C16.5826 2.25356 16.1705 3.31199 15.349 4.29166C14.3577 5.4563 13.1586 6.12929 11.8583 6.02309C11.8417 5.8871 11.8321 5.74397 11.8321 5.59356C11.8321 4.50531 12.3035 3.34067 13.1408 2.38842C13.5587 1.90628 14.0903 1.50539 14.735 1.18559C15.3783 0.870556 15.9867 0.696338 16.559 0.666504C16.5757 0.818048 16.5826 0.969601 16.5826 1.11995V1.11997Z" fill="white"/>
</svg>
